<svg xmlns="http://www.w3.org/2000/svg" xmlns:xlink="http://www.w3.org/1999/xlink" width="263.227" height="42.509" viewBox="0 0 263.227 42.509">
  <defs>
    <clipPath id="clip-path">
      <rect id="Rectangle_17" data-name="Rectangle 17" width="263.227" height="42.509" transform="translate(0 0)" fill="none"/>
    </clipPath>
  </defs>
  <g id="Vector_Smart_Object" data-name="Vector Smart Object" transform="translate(0 0)">
    <g id="Group_34" data-name="Group 34">
      <g id="Group_33" data-name="Group 33" clip-path="url(#clip-path)">
        <path id="Path_28" data-name="Path 28" d="M189.4,23.54s-1.042-3.7,1.037-6.485,9.262-3.213,12-.9,4.984,8.452.961,12.1-7.722,3.4-10.793,1.13a7.886,7.886,0,0,1-3.2-5.844" fill-rule="evenodd"/>
        <path id="Path_29" data-name="Path 29" d="M198.511,12.989c-2.3-.889-5.013-1.378-7.3-.19a7.156,7.156,0,0,0-3.425,4.7A13.98,13.98,0,0,0,191.2,30.409a8.137,8.137,0,0,0,6.124,2.385,11.712,11.712,0,0,0,8.114-4.079c4.139-5.1.569-12.611-4.762-15.2a9.2,9.2,0,0,0-9,.508,10.265,10.265,0,0,0-4.049,4.453,7.873,7.873,0,0,0-.031,5.813,10.947,10.947,0,0,0,9.441,7.023,8.65,8.65,0,0,0,8.488-6.628A9.343,9.343,0,0,0,202.775,15a6.922,6.922,0,0,0-6.7-.907,13.617,13.617,0,0,0-6.188,4.609,10.007,10.007,0,0,0-2.379,6.758c.24,2.678,2.252,4.512,4.639,5.473a11.1,11.1,0,0,0,5.694.858,8,8,0,0,0,4.5-2.295,10.308,10.308,0,0,0,2.244-10.254,9.963,9.963,0,0,0-3.84-5.229,5.584,5.584,0,0,0-5.492-.254,12.216,12.216,0,0,0-4.756,4.507c-.153.231.249.317.366.141a11.545,11.545,0,0,1,4.828-4.488,5.185,5.185,0,0,1,5.7,1.105,10.347,10.347,0,0,1,2.779,10.655,8,8,0,0,1-7.694,5.865,11.684,11.684,0,0,1-5.156-1.417,6.754,6.754,0,0,1-2.641-2.431,6.9,6.9,0,0,1,.041-6.308A13.717,13.717,0,0,1,193.46,15.8,8.767,8.767,0,0,1,199.9,14.06c2.764.533,4.677,3.126,5.307,5.737a9.541,9.541,0,0,1-3.714,10c-3.621,2.378-8.335.9-11.159-2.019-2.794-2.885-3.957-7.374-1.4-10.8a9.57,9.57,0,0,1,8.818-4c5.543.833,10.237,7.1,8.8,12.675-.81,3.138-3.586,5.249-6.539,6.267a8.11,8.11,0,0,1-6.595-.349c-3.814-2.078-5.594-6.94-5.573-11.079a9.8,9.8,0,0,1,1.609-5.711,5.812,5.812,0,0,1,5.015-2.35,11.56,11.56,0,0,1,3.794.863c.2.074.5-.2.246-.305"/>
        <path id="Path_30" data-name="Path 30" d="M17.888,10.978a10.08,10.08,0,0,1,3.7,4V9.862h4.28V35.4h-4.28V30.189a10.177,10.177,0,0,1-3.7,4.071,10.363,10.363,0,0,1-5.7,1.557,11.641,11.641,0,0,1-6.213-1.7A11.975,11.975,0,0,1,1.6,29.374,14.59,14.59,0,0,1,0,22.467a14.056,14.056,0,0,1,1.6-6.815,11.652,11.652,0,0,1,4.374-4.581,12.015,12.015,0,0,1,6.213-1.629,10.49,10.49,0,0,1,5.7,1.535M8.677,14.234a8.235,8.235,0,0,0-3.163,3.234,10.062,10.062,0,0,0-1.186,5,10.608,10.608,0,0,0,1.186,5.094A8.771,8.771,0,0,0,8.677,30.98a8.026,8.026,0,0,0,4.257,1.209,8.331,8.331,0,0,0,4.3-1.163A8.483,8.483,0,0,0,20.4,27.7a10.319,10.319,0,0,0,1.188-5.047A10.315,10.315,0,0,0,20.4,17.607a8.5,8.5,0,0,0-3.163-3.328,8.362,8.362,0,0,0-4.3-1.163,8.535,8.535,0,0,0-4.257,1.117"/>
        <path id="Path_31" data-name="Path 31" d="M48.874,10.676a8.909,8.909,0,0,1,3.583,3.674,12.27,12.27,0,0,1,1.326,5.929V35.4H49.594V20.976a8.3,8.3,0,0,0-1.86-5.859,6.713,6.713,0,0,0-5.164-2,6.732,6.732,0,0,0-5.141,2,8.25,8.25,0,0,0-1.883,5.859V35.4H31.31V9.862h4.234V14a8.439,8.439,0,0,1,3.443-3.4,10.8,10.8,0,0,1,9.886.071"/>
        <path id="Path_32" data-name="Path 32" d="M77.2,11.583a11.207,11.207,0,0,1,4.07,6.093H76.716a6.687,6.687,0,0,0-2.558-3.489,7.671,7.671,0,0,0-4.467-1.256,7.374,7.374,0,0,0-5.84,2.536Q61.644,18,61.643,22.654q0,4.6,2.208,7.14a7.367,7.367,0,0,0,5.84,2.534,7.747,7.747,0,0,0,4.467-1.209,6.776,6.776,0,0,0,2.558-3.535h4.559a11.581,11.581,0,0,1-4.116,6,12.044,12.044,0,0,1-7.468,2.232,12.53,12.53,0,0,1-6.4-1.627,11.275,11.275,0,0,1-4.4-4.629,14.565,14.565,0,0,1-1.583-6.907A14.672,14.672,0,0,1,58.9,15.7a11.345,11.345,0,0,1,4.372-4.629,12.507,12.507,0,0,1,6.421-1.629,12.367,12.367,0,0,1,7.513,2.14"/>
        <path id="Path_33" data-name="Path 33" d="M102.933,10.676a8.909,8.909,0,0,1,3.583,3.674,12.27,12.27,0,0,1,1.326,5.929V35.4h-4.188V20.976a8.3,8.3,0,0,0-1.86-5.859,7.635,7.635,0,0,0-10.306,0A8.25,8.25,0,0,0,89.6,20.976V35.4H85.37V.978H89.6V14a8.459,8.459,0,0,1,3.443-3.4,10.8,10.8,0,0,1,9.886.071"/>
        <path id="Path_34" data-name="Path 34" d="M130.823,11.073a11.818,11.818,0,0,1,4.629,4.65,13.91,13.91,0,0,1,1.7,6.931,13.269,13.269,0,0,1-1.768,6.861,12.328,12.328,0,0,1-4.792,4.652,13.732,13.732,0,0,1-6.7,1.65,12.787,12.787,0,0,1-6.442-1.627,11.376,11.376,0,0,1-4.467-4.629,14.42,14.42,0,0,1-1.6-6.907,13.881,13.881,0,0,1,1.7-6.954,11.855,11.855,0,0,1,4.629-4.627,14.011,14.011,0,0,1,13.119,0m-10.932,2.975a7.985,7.985,0,0,0-3.048,3.3,11.352,11.352,0,0,0-1.14,5.3A11.623,11.623,0,0,0,116.8,27.91a7.778,7.778,0,0,0,2.953,3.3,7.911,7.911,0,0,0,4.141,1.117,8.661,8.661,0,0,0,7.632-4.466,10.271,10.271,0,0,0,1.255-5.209,11.027,11.027,0,0,0-1.186-5.281,8.115,8.115,0,0,0-3.163-3.325,8.625,8.625,0,0,0-4.3-1.117,8.233,8.233,0,0,0-4.234,1.117"/>
        <path id="Path_35" data-name="Path 35" d="M152.922,9.443v4.419H151.8a6.716,6.716,0,0,0-4.954,1.7q-1.7,1.7-1.7,5.885V35.4h-4.234V9.862h4.234v4.325a7.955,7.955,0,0,1,7.769-4.745"/>
        <path id="Path_36" data-name="Path 36" d="M176.392,11.071a11.652,11.652,0,0,1,4.374,4.581,14.054,14.054,0,0,1,1.6,6.813,14.592,14.592,0,0,1-1.6,6.908,12,12,0,0,1-4.374,4.745,11.645,11.645,0,0,1-6.213,1.7,10.377,10.377,0,0,1-5.7-1.557,10.493,10.493,0,0,1-3.745-4.073V42.509H156.5V9.862h4.232v5.116a10.376,10.376,0,0,1,9.443-5.536,12.019,12.019,0,0,1,6.213,1.629m-11.3,3.208a8.491,8.491,0,0,0-3.165,3.326,10.337,10.337,0,0,0-1.186,5.047,10.343,10.343,0,0,0,1.186,5.049,8.486,8.486,0,0,0,3.165,3.325A8.337,8.337,0,0,0,173.623,31a8.462,8.462,0,0,0,3.187-3.418A10.737,10.737,0,0,0,178,22.466a10.066,10.066,0,0,0-1.186-5,8.252,8.252,0,0,0-3.163-3.233,8.621,8.621,0,0,0-4.3-1.117,8.26,8.26,0,0,0-4.257,1.163"/>
        <path id="Path_37" data-name="Path 37" d="M214.145.838a2.73,2.73,0,0,1,2-.838,2.785,2.785,0,0,1,2.047.838,2.786,2.786,0,0,1,.837,2.047,2.789,2.789,0,0,1-.837,2.047,2.79,2.79,0,0,1-2.047.836,2.708,2.708,0,0,1-2.024-.836,2.828,2.828,0,0,1-.814-2.047,2.786,2.786,0,0,1,.837-2.047M218.24,35.4h-4.234V9.862h4.234Z"/>
        <path id="Path_38" data-name="Path 38" d="M241.246,10.676a8.909,8.909,0,0,1,3.583,3.674,12.289,12.289,0,0,1,1.324,5.929V35.4h-4.187V20.976a8.312,8.312,0,0,0-1.86-5.859,7.635,7.635,0,0,0-10.306,0,8.25,8.25,0,0,0-1.883,5.859V35.4h-4.234V9.862h4.234V14a8.439,8.439,0,0,1,3.443-3.4,10.8,10.8,0,0,1,9.886.071"/>
        <path id="Path_39" data-name="Path 39" d="M263.227,31.956V35.4h-4.28a7.028,7.028,0,0,1-4.956-1.583q-1.7-1.58-1.7-4.976V13.305h-3.306V9.862h3.306V3.536h4.278V9.862h6.608v3.443h-6.608V28.841a3.366,3.366,0,0,0,.7,2.418,3.447,3.447,0,0,0,2.467.7Z"/>
      </g>
    </g>
  </g>
</svg>
