<svg xmlns="http://www.w3.org/2000/svg" width="72.848" height="16" viewBox="0 0 72.848 16">
  <path id="Path_35" data-name="Path 35" d="M2.08-5.6a4.414,4.414,0,0,1,.584-2.3A4.327,4.327,0,0,1,4.192-9.44,3.943,3.943,0,0,1,6.24-10,4.88,4.88,0,0,1,7.7-9.792a4.448,4.448,0,0,1,1.208.584,4.139,4.139,0,0,1,.928.872v-1.792A4.776,4.776,0,0,0,8.3-11.056a6.064,6.064,0,0,0-2.064-.3,5.613,5.613,0,0,0-2.184.424,5.423,5.423,0,0,0-1.784,1.2A5.573,5.573,0,0,0,1.072-7.9,6.027,6.027,0,0,0,.64-5.6a6.027,6.027,0,0,0,.432,2.3,5.573,5.573,0,0,0,1.2,1.832,5.423,5.423,0,0,0,1.784,1.2A5.613,5.613,0,0,0,6.24.16,6.064,6.064,0,0,0,8.3-.144,4.776,4.776,0,0,0,9.84-1.072V-2.864a4.139,4.139,0,0,1-.928.872A4.448,4.448,0,0,1,7.7-1.408,4.88,4.88,0,0,1,6.24-1.2a3.943,3.943,0,0,1-2.048-.56A4.307,4.307,0,0,1,2.664-3.312,4.425,4.425,0,0,1,2.08-5.6Zm10.96-5.6V0H18.8V-1.28H14.4V-11.2Zm8.32,5.6a4.561,4.561,0,0,1,.552-2.256,4.146,4.146,0,0,1,1.512-1.568A4.147,4.147,0,0,1,25.6-10a4.135,4.135,0,0,1,2.184.576,4.165,4.165,0,0,1,1.5,1.568A4.561,4.561,0,0,1,29.84-5.6a4.561,4.561,0,0,1-.552,2.256,4.165,4.165,0,0,1-1.5,1.568A4.135,4.135,0,0,1,25.6-1.2a4.147,4.147,0,0,1-2.176-.576,4.146,4.146,0,0,1-1.512-1.568A4.561,4.561,0,0,1,21.36-5.6Zm-1.44,0a6.04,6.04,0,0,0,.424,2.272A5.47,5.47,0,0,0,21.536-1.5,5.566,5.566,0,0,0,23.344-.28,5.73,5.73,0,0,0,25.6.16a5.713,5.713,0,0,0,2.264-.44,5.589,5.589,0,0,0,1.8-1.216,5.47,5.47,0,0,0,1.192-1.832A6.04,6.04,0,0,0,31.28-5.6a6.023,6.023,0,0,0-.424-2.28A5.489,5.489,0,0,0,29.664-9.7a5.589,5.589,0,0,0-1.8-1.216,5.713,5.713,0,0,0-2.264-.44,5.73,5.73,0,0,0-2.256.44A5.566,5.566,0,0,0,21.536-9.7,5.489,5.489,0,0,0,20.344-7.88,6.023,6.023,0,0,0,19.92-5.6Zm14.5,2.208-1.088.736a6.22,6.22,0,0,0,.952,1.384,4.62,4.62,0,0,0,1.36,1.04A3.69,3.69,0,0,0,37.328.16a3.74,3.74,0,0,0,1.288-.224,3.564,3.564,0,0,0,1.1-.64,2.985,2.985,0,0,0,.768-1.008,3.068,3.068,0,0,0,.28-1.328A2.959,2.959,0,0,0,40.5-4.36a3.192,3.192,0,0,0-.7-.944,4.167,4.167,0,0,0-.92-.648,7.765,7.765,0,0,0-.944-.416,8.208,8.208,0,0,1-1.544-.68,2.341,2.341,0,0,1-.808-.736,1.609,1.609,0,0,1-.24-.856,1.4,1.4,0,0,1,.416-.984,1.755,1.755,0,0,1,1.328-.44,2.241,2.241,0,0,1,1.112.256,2.635,2.635,0,0,1,.776.656,4.608,4.608,0,0,1,.528.816l1.168-.672a4.524,4.524,0,0,0-.752-1.128,3.9,3.9,0,0,0-1.16-.88,3.484,3.484,0,0,0-1.592-.344,3.641,3.641,0,0,0-1.68.376,2.886,2.886,0,0,0-1.152,1.032,2.719,2.719,0,0,0-.416,1.488,2.616,2.616,0,0,0,.3,1.3,2.913,2.913,0,0,0,.76.888,4.866,4.866,0,0,0,.976.592q.512.232.928.376a10.8,10.8,0,0,1,1.208.5,2.621,2.621,0,0,1,.92.728,1.89,1.89,0,0,1,.352,1.2,1.635,1.635,0,0,1-.544,1.264,2.054,2.054,0,0,1-1.44.5,2.465,2.465,0,0,1-1.2-.288,3.271,3.271,0,0,1-.952-.8A8.34,8.34,0,0,1,34.416-3.392ZM44.32,0h5.648V-1.28H44.32Zm0-9.92h5.648V-11.2H44.32Zm0,4.48h5.328V-6.72H44.32Zm-.752-5.76V0h1.36V-11.2Zm21.92-3.022a8.077,8.077,0,0,0-4,1.056,7.5,7.5,0,0,0-2.944,2.944,8.077,8.077,0,0,0-1.056,4,8.077,8.077,0,0,0,1.056,4A7.5,7.5,0,0,0,61.488.722a8.077,8.077,0,0,0,4,1.056,8.077,8.077,0,0,0,4-1.056,7.5,7.5,0,0,0,2.944-2.944,8.077,8.077,0,0,0,1.056-4,8.077,8.077,0,0,0-1.056-4,7.5,7.5,0,0,0-2.944-2.944A8.077,8.077,0,0,0,65.488-14.222Zm0,14.667a6.61,6.61,0,0,1-3.333-.889A6.456,6.456,0,0,1,59.71-2.889a6.61,6.61,0,0,1-.889-3.333,6.61,6.61,0,0,1,.889-3.333A6.456,6.456,0,0,1,62.155-12a6.61,6.61,0,0,1,3.333-.889A6.61,6.61,0,0,1,68.821-12a6.456,6.456,0,0,1,2.444,2.444,6.61,6.61,0,0,1,.889,3.333,6.61,6.61,0,0,1-.889,3.333A6.456,6.456,0,0,1,68.821-.444,6.61,6.61,0,0,1,65.488.444Zm2.444-9.111a.64.64,0,0,0-.444-.222.64.64,0,0,0-.444.222L65.488-7.111,63.932-8.667a.64.64,0,0,0-.444-.222.64.64,0,0,0-.444.222.691.691,0,0,0-.222.5.4.4,0,0,0,.222.389L64.6-6.222,63.044-4.667a.64.64,0,0,0-.222.444.64.64,0,0,0,.222.444.64.64,0,0,0,.444.222.64.64,0,0,0,.444-.222l1.556-1.556,1.556,1.556a.64.64,0,0,0,.444.222.64.64,0,0,0,.444-.222.691.691,0,0,0,.222-.5.542.542,0,0,0-.111-.389L66.377-6.222l1.556-1.556a.64.64,0,0,0,.222-.444A.64.64,0,0,0,67.932-8.667Z" transform="translate(-0.64 14.222)" fill="#fff"/>
</svg>
