<svg xmlns="http://www.w3.org/2000/svg" width="20.187" height="20.709" viewBox="0 0 20.187 20.709">
  <g id="Group_35" data-name="Group 35" transform="translate(-269.051 -113.095)">
    <path id="Path_28" data-name="Path 28" d="M189.4,23.54s-1.042-3.7,1.037-6.485,9.262-3.213,12-.9,4.984,8.452.961,12.1-7.722,3.4-10.793,1.13a7.886,7.886,0,0,1-3.2-5.844" transform="translate(82 101)" fill="#f5480c" fill-rule="evenodd"/>
    <path id="Path_29" data-name="Path 29" d="M198.511,12.989c-2.3-.889-5.013-1.378-7.3-.19a7.156,7.156,0,0,0-3.425,4.7A13.98,13.98,0,0,0,191.2,30.409a8.137,8.137,0,0,0,6.124,2.385,11.712,11.712,0,0,0,8.114-4.079c4.139-5.1.569-12.611-4.762-15.2a9.2,9.2,0,0,0-9,.508,10.265,10.265,0,0,0-4.049,4.453,7.873,7.873,0,0,0-.031,5.813,10.947,10.947,0,0,0,9.441,7.023,8.65,8.65,0,0,0,8.488-6.628A9.343,9.343,0,0,0,202.775,15a6.922,6.922,0,0,0-6.7-.907,13.617,13.617,0,0,0-6.188,4.609,10.007,10.007,0,0,0-2.379,6.758c.24,2.678,2.252,4.512,4.639,5.473a11.1,11.1,0,0,0,5.694.858,8,8,0,0,0,4.5-2.295,10.308,10.308,0,0,0,2.244-10.254,9.963,9.963,0,0,0-3.84-5.229,5.584,5.584,0,0,0-5.492-.254,12.216,12.216,0,0,0-4.756,4.507c-.153.231.249.317.366.141a11.545,11.545,0,0,1,4.828-4.488,5.185,5.185,0,0,1,5.7,1.105,10.347,10.347,0,0,1,2.779,10.655,8,8,0,0,1-7.694,5.865,11.684,11.684,0,0,1-5.156-1.417,6.754,6.754,0,0,1-2.641-2.431,6.9,6.9,0,0,1,.041-6.308A13.717,13.717,0,0,1,193.46,15.8,8.767,8.767,0,0,1,199.9,14.06c2.764.533,4.677,3.126,5.307,5.737a9.541,9.541,0,0,1-3.714,10c-3.621,2.378-8.335.9-11.159-2.019-2.794-2.885-3.957-7.374-1.4-10.8a9.57,9.57,0,0,1,8.818-4c5.543.833,10.237,7.1,8.8,12.675-.81,3.138-3.586,5.249-6.539,6.267a8.11,8.11,0,0,1-6.595-.349c-3.814-2.078-5.594-6.94-5.573-11.079a9.8,9.8,0,0,1,1.609-5.711,5.812,5.812,0,0,1,5.015-2.35,11.56,11.56,0,0,1,3.794.863c.2.074.5-.2.246-.305" transform="translate(82 101)" fill="#f5480c"/>
  </g>
</svg>
