<svg xmlns="http://www.w3.org/2000/svg" xmlns:xlink="http://www.w3.org/1999/xlink" width="97" height="93" viewBox="0 0 97 93">
  <defs>
    <clipPath id="clip-path">
      <rect id="Rectangle_18" data-name="Rectangle 18" width="97" height="93" fill="none"/>
    </clipPath>
  </defs>
  <g id="Group_43" data-name="Group 43" transform="translate(-1632 -549)">
    <path id="Path_73" data-name="Path 73" d="M32.632-16.7,7.451-32.375q-1.8-1.028-2.826,0a1.262,1.262,0,0,0-1.156.642,3.214,3.214,0,0,0-.385,1.67v31.6A2.3,2.3,0,0,0,3.469,2.7,2.952,2.952,0,0,0,4.5,3.726a2.7,2.7,0,0,0,1.413.385A2.763,2.763,0,0,0,7.451,3.6L32.632-12.076a1.559,1.559,0,0,0,1.028-.9,3.772,3.772,0,0,0,.257-1.413A3.772,3.772,0,0,0,33.66-15.8,1.559,1.559,0,0,0,32.632-16.7ZM6.167.771V-29.549l24.41,15.16Z" transform="translate(1666.877 607.622)" fill="#fff"/>
    <g id="Vector_Smart_Object" data-name="Vector Smart Object" transform="translate(1632 549)">
      <g id="Group_35" data-name="Group 35">
        <g id="Group_34" data-name="Group 34" clip-path="url(#clip-path)">
          <path id="Path_43" data-name="Path 43" d="M20.6,1.149S-12.826,18.64,5.851,59.614c16.724,36.689,63.4,20.495,74.705,8.234C89.745,57.881,100.6,30.13,70.08,9.658,39.114-11.111,14.121,13.227,12.191,15.7S-18.058,52.513,26.663,82.671C70.08,111.949,97.1,70.868,96.82,47.949,96.6,29.967,83.863-.5,56.573.189S7.367,22.971,8.607,43.145,28.455,81.71,51.059,86.1s41.212-15.1,41.35-32.938S84.691,16.795,66.772,11.991,28.394,14.055,17.98,36.421C6.953,60.1,21.349,70.838,21.349,70.838S50.141,93.223,68.7,73.888c22.173-23.1,4.548-51.054,2.481-54.348S47.476-4.478,23.217,17.207s.276,49.956,3.446,51.877S52.71,87.059,74.9,64.144c17.413-17.979-.827-42.82-.827-42.82s-9.786-6.862-25.361-4.941" fill="none" stroke="#fff" stroke-miterlimit="10" stroke-width="2"/>
        </g>
      </g>
    </g>
  </g>
</svg>
