<svg xmlns="http://www.w3.org/2000/svg" width="30.833" height="37" viewBox="0 0 30.833 37">
  <path id="Path_34" data-name="Path 34" d="M32.632-16.7,7.451-32.375q-1.8-1.028-2.826,0a1.262,1.262,0,0,0-1.156.642,3.214,3.214,0,0,0-.385,1.67v31.6A2.3,2.3,0,0,0,3.469,2.7,2.952,2.952,0,0,0,4.5,3.726a2.7,2.7,0,0,0,1.413.385A2.763,2.763,0,0,0,7.451,3.6L32.632-12.076a1.559,1.559,0,0,0,1.028-.9,3.772,3.772,0,0,0,.257-1.413A3.772,3.772,0,0,0,33.66-15.8,1.559,1.559,0,0,0,32.632-16.7ZM6.167.771V-29.549l24.41,15.16Z" transform="translate(33.917 4.111) rotate(180)" fill="#fff"/>
</svg>
