<svg xmlns="http://www.w3.org/2000/svg" width="868.52" height="829.05" viewBox="0 0 868.52 829.05">
  <g id="Group_38" data-name="Group 38" transform="translate(0.46 1.52)">
    <path id="Path_40" data-name="Path 40" d="M-.46-1.52V827.53H868.06V-1.52ZM439.8,744.1c-194.02,0-351.3-157.28-351.3-351.3S245.78,41.5,439.8,41.5,791.1,198.78,791.1,392.8,633.82,744.1,439.8,744.1Z" fill="#fff"/>
    <g id="Group_37" data-name="Group 37">
      <path id="Path_41" data-name="Path 41" d="M790.84,379.14a491.235,491.235,0,0,1,7.32,88.8c-.6,77.95-43.36,161.01-111.59,216.78-68.49,55.98-152.38,77.8-236.2,61.44q-5.01-.975-9.98-2.08h-.59c-1.38,0-2.75-.01-4.12-.03q7.23,1.65,14.5,3.08a284.321,284.321,0,0,0,54.54,5.32c65.34,0,128.65-22.97,182.48-66.96,68.46-55.95,111.36-139.31,111.96-217.55a491.083,491.083,0,0,0-8.7-96.33Q790.685,375.375,790.84,379.14Z" fill="#9d9d9c"/>
      <path id="Path_42" data-name="Path 42" d="M836.32,423.82c-.61-51.17-12.76-109.84-34.21-165.19-24.49-63.2-59.54-117.9-101.36-158.19-27.37-26.37-57.67-46.65-90.04-60.27C575.22,25.24,536.88,18.18,496.72,19.2a438.787,438.787,0,0,0-83.33,10.11C367.06,27,320.48,34.33,274.75,51.16,228.4,68.22,191.59,92.03,168.87,109c-27.49,20.54-43.15,37.34-46.47,41.61l-1.03,1.31C90.13,191.65,21.11,295.45,34.61,422.19c-10.46-42.72-14.39-83.9-11.71-123.16A326.1,326.1,0,0,1,72.89,145.47C122.97,66.15,193.16,28.64,193.86,28.27l-.46-.89c-.71.37-71.1,37.98-121.33,117.51A327.14,327.14,0,0,0,21.9,298.93c-2.84,41.66,1.73,85.47,13.63,130.97.31,2.32.64,4.65,1.01,6.99C52.77,541,122.72,635.6,244.45,718.04c73.68,49.9,145.98,78.38,214.89,84.65q14.7,1.335,29.14,1.34a297.292,297.292,0,0,0,142.57-36.06C761.28,697.88,837.69,537.95,836.32,423.82ZM782.97,610.39c-26.79,48.48-74.97,115.03-152.4,156.7C486.92,844.4,341.61,782.64,245,717.21,124.02,635.28,54.29,541.36,37.73,438.05a587.274,587.274,0,0,0,31.19,84.69c25.25,55.63,60.13,99.95,103.66,131.71,29.42,21.47,62.86,37.28,99.75,47.23-1.26-.69-2.52-1.38-3.77-2.08-35.18-9.97-67.14-25.35-95.38-45.96C129.77,621.98,95,577.8,69.83,522.32a579.609,579.609,0,0,1-33.32-92.61C19.37,299.89,90.37,192.96,122.15,152.54l1.03-1.32c3.3-4.24,18.88-20.95,46.28-41.42A423.3,423.3,0,0,1,275.08,52.09c44.4-16.34,89.58-23.7,134.57-21.96a447.539,447.539,0,0,0-90.57,31.4q-6.045,2.85-12.01,5.88,5.355-2.19,10.81-4.2c.54-.26,1.08-.52,1.63-.78a446.34,446.34,0,0,1,93.94-32.14q6.51.33,13.03.91a348.268,348.268,0,0,1,77.44,16.12c2.46.45,4.92.93,7.36,1.44A351.768,351.768,0,0,0,426.57,30.2c-3.14-.28-6.29-.52-9.43-.71a437.83,437.83,0,0,1,79.58-9.32c40.01-1.02,78.22,6.02,113.58,20.89,32.26,13.57,62.45,33.78,89.74,60.07,41.72,40.19,76.68,94.77,101.12,157.84,21.41,55.24,33.53,113.78,34.14,164.84C836,480.94,816.93,548.94,782.97,610.39Z" fill="#9d9d9c"/>
    </g>
  </g>
</svg>
