<svg xmlns="http://www.w3.org/2000/svg" width="18.01" height="18.01" viewBox="0 0 18.01 18.01">
  <path id="Path_40" data-name="Path 40" d="M-9.881-12.007a1.106,1.106,0,0,0-.5-.313.743.743,0,0,0-.563.125.744.744,0,0,0-.375.5.6.6,0,0,0,.188.563l2.752,4L-11.131-3a.6.6,0,0,0-.188.563A.585.585,0,0,0-11.006-2a1.241,1.241,0,0,0,.563.125.778.778,0,0,0,.563-.25l3-4.378a1.241,1.241,0,0,0,.125-.563,1.241,1.241,0,0,0-.125-.563Zm.876-4a9.092,9.092,0,0,0-4.5,1.188,8.447,8.447,0,0,0-3.314,3.314A9.092,9.092,0,0,0-18.01-7a9.092,9.092,0,0,0,1.188,4.5A8.447,8.447,0,0,0-13.508.813,9.092,9.092,0,0,0-9.005,2,9.092,9.092,0,0,0-4.5.813,8.447,8.447,0,0,0-1.188-2.5,9.092,9.092,0,0,0,0-7a9.092,9.092,0,0,0-1.188-4.5A8.447,8.447,0,0,0-4.5-14.821,9.092,9.092,0,0,0-9.005-16.009ZM-9.005.5a7.44,7.44,0,0,1-3.752-1,7.267,7.267,0,0,1-2.752-2.752,7.44,7.44,0,0,1-1-3.752,7.44,7.44,0,0,1,1-3.752,7.267,7.267,0,0,1,2.752-2.752,7.44,7.44,0,0,1,3.752-1,7.44,7.44,0,0,1,3.752,1A7.267,7.267,0,0,1-2.5-10.756,7.44,7.44,0,0,1-1.5-7a7.44,7.44,0,0,1-1,3.752A7.267,7.267,0,0,1-5.253-.5,7.44,7.44,0,0,1-9.005.5Z" transform="translate(18.01 16.009)" fill="#ec6156"/>
</svg>
